<?xml version="1.0" encoding="utf-8"?>
<!-- Generator: Adobe Illustrator 15.0.0, SVG Export Plug-In  -->
<!DOCTYPE svg PUBLIC "-//W3C//DTD SVG 1.0//EN" "http://www.w3.org/TR/2001/REC-SVG-20010904/DTD/svg10.dtd" [
	<!ENTITY ns_flows "http://ns.adobe.com/Flows/1.0/">
]>
<svg version="1.0"
	 xmlns="http://www.w3.org/2000/svg" xmlns:xlink="http://www.w3.org/1999/xlink" xmlns:a="http://ns.adobe.com/AdobeSVGViewerExtensions/3.0/"
	 x="0px" y="0px" width="174px" height="43px" viewBox="327 264.912 174 43" enable-background="new 327 264.912 174 43"
	 xml:space="preserve">
<defs>
</defs>
<g>
	<path fill="#272727" d="M349.29,290.107v-5.613h16.625v13.271c-1.616,1.363-3.957,2.564-7.022,3.602
		c-3.066,1.037-6.172,1.557-9.316,1.557c-3.996,0-7.479-0.73-10.449-2.193c-2.97-1.462-5.203-3.553-6.697-6.271
		c-1.494-2.72-2.241-5.678-2.241-8.875c0-3.469,0.834-6.552,2.501-9.249c1.667-2.696,4.108-4.765,7.322-6.204
		c2.449-1.105,5.498-1.659,9.146-1.659c4.743,0,8.447,0.868,11.114,2.602c2.667,1.735,4.382,4.132,5.146,7.193l-7.661,1.25
		c-0.539-1.637-1.55-2.928-3.036-3.875s-3.34-1.42-5.563-1.42c-3.37,0-6.05,0.932-8.039,2.795c-1.989,1.864-2.983,4.628-2.983,8.295
		c0,3.953,1.007,6.919,3.022,8.896c2.015,1.977,4.655,2.965,7.921,2.965c1.616,0,3.235-0.275,4.86-0.829
		c1.624-0.553,3.018-1.224,4.182-2.011v-4.227H349.29z"/>
	<path fill="#272727" d="M371.283,289.947c0-2.121,0.599-4.174,1.798-6.158s2.896-3.5,5.094-4.545s4.651-1.568,7.361-1.568
		c4.187,0,7.618,1.185,10.293,3.556c2.675,2.371,4.013,5.367,4.013,8.988c0,3.65-1.351,6.678-4.052,9.078
		c-2.702,2.401-6.102,3.602-10.202,3.602c-2.537,0-4.956-0.5-7.257-1.5c-2.302-0.999-4.052-2.465-5.251-4.396
		S371.283,292.721,371.283,289.947z M378.787,290.289c0,2.394,0.652,4.227,1.955,5.499s2.91,1.909,4.821,1.909
		c1.911,0,3.513-0.637,4.808-1.909c1.294-1.272,1.941-3.121,1.941-5.545c0-2.363-0.647-4.182-1.941-5.454
		c-1.294-1.272-2.897-1.908-4.808-1.908c-1.911,0-3.518,0.636-4.821,1.908S378.787,287.895,378.787,290.289z"/>
	<path fill="#272727" d="M440.075,302.355h-8.391l-3.335-7.567h-15.27l-3.153,7.567h-8.182l14.879-33.315h8.156L440.075,302.355z
		 M425.874,289.175l-5.264-12.362l-5.159,12.362H425.874z"/>
	<path fill="#272727" d="M441.535,295.47l7.348-0.978c0.313,1.242,0.947,2.186,1.902,2.83c0.955,0.644,2.293,0.965,4.013,0.965
		c1.893,0,3.318-0.303,4.273-0.908c0.643-0.424,0.964-0.992,0.964-1.705c0-0.484-0.174-0.886-0.521-1.204
		c-0.365-0.303-1.182-0.583-2.449-0.841c-5.907-1.137-9.65-2.174-11.231-3.113c-2.189-1.303-3.283-3.113-3.283-5.432
		c0-2.09,0.947-3.848,2.84-5.271c1.893-1.424,4.829-2.136,8.808-2.136c3.787,0,6.601,0.539,8.442,1.613
		c1.841,1.076,3.109,2.668,3.805,4.773l-6.905,1.113c-0.296-0.939-0.856-1.659-1.681-2.159s-2.002-0.75-3.531-0.75
		c-1.928,0-3.309,0.235-4.143,0.704c-0.556,0.334-0.834,0.766-0.834,1.296c0,0.454,0.243,0.841,0.73,1.159
		c0.66,0.424,2.94,1.022,6.84,1.795s6.623,1.72,8.169,2.841c1.528,1.136,2.293,2.72,2.293,4.749c0,2.213-1.06,4.113-3.179,5.704
		c-2.12,1.591-5.255,2.386-9.407,2.386c-3.77,0-6.753-0.666-8.951-2C443.649,299.568,442.212,297.758,441.535,295.47z"/>
	<path fill="#272727" d="M473.533,302.355v-33.315h7.322v17.68l8.573-8.499h9.016l-9.459,8.817l10.137,15.316h-7.896l-6.958-10.84
		l-3.414,3.113v7.727H473.533z"/>
</g>
<rect id="_x3C_Фрагмент_x3E__1_" x="327" y="264.912" fill="none" width="174" height="43"/>
</svg>
